. 
  
http://www.torrenting.com/        :     Greatest Movie Tracker on The Net!!!
 
http://www.Torrenting.com          :     Once & For all ;)


               www . Torrenting . Com 

(((((((((((((= Enjoy No RAR releases =))))))))))))))))))))


...................................NFO:....................................

.








































          
          
              
              
                    
                    
                    
                    

Bunraku.2011.VODRip.XviD-SiC

Poster:
[img]http://img221.imageshack.us/img221/158/mv5bndiwmta3mdg2ov5bml5euje.jpg[/img]

IMDB Link: 
http://www.imdb.com/title/tt1181795/

Description:
The story of a a young man who has spent his life searching for revenge only to find himself up against a bigger challenge than he originally bargained for.

MediaInfo:
General
Complete name                    : Bunraku.2011.VODRip.XviD-SiC.avi
Format                           : AVI
Format/Info                      : Audio Video Interleave
File size                        : 1 014 MiB
Duration                         : 2h 4mn
Overall bit rate                 : 1 138 Kbps
Writing library                  : VirtualDub build 32839/release

Video
ID                               : 0
Format                           : MPEG-4 Visual
Format profile                   : Advanced Simple@L5
Format settings, BVOP            : 1
Format settings, QPel            : No
Format settings, GMC             : No warppoints
Format settings, Matrix          : Default (H.263)
Muxing mode                      : Packed bitstream
Codec ID                         : XVID
Codec ID/Hint                    : XviD
Duration                         : 2h 4mn
Bit rate                         : 1 001 Kbps
Width                            : 720 pixels
Height                           : 304 pixels
Display aspect ratio             : 2.35:1
Frame rate                       : 23.976 fps
Color space                      : YUV
Chroma subsampling               : 4:2:0
Bit depth                        : 8 bits
Scan type                        : Progressive
Compression mode                 : Lossy
Bits/(Pixel*Frame)               : 0.191
Stream size                      : 891 MiB (88%)
Writing library                  : XviD 1.2.1 (UTC 2008-12-04)

Audio
ID                               : 1
Format                           : MPEG Audio
Format version                   : Version 1
Format profile                   : Layer 3
Codec ID                         : 55
Codec ID/Hint                    : MP3
Duration                         : 2h 4mn
Bit rate mode                    : Constant
Bit rate                         : 128 Kbps
Channel(s)                       : 2 channels
Sampling rate                    : 44.1 KHz
Compression mode                 : Lossy
Stream size                      : 114 MiB (11%)
Alignment                        : Split accross interleaves
Interleave, duration             : 42 ms (1.00 video frame)
Interleave, preload duration     : 500 ms


Screenshots:
[img]http://img854.imageshack.us/img854/8803/snap1sa.png[/img]
[img]http://img560.imageshack.us/img560/2956/snap2d.png[/img]
[img]http://img846.imageshack.us/img846/7657/snap3m.png[/img]
[img]http://img339.imageshack.us/img339/8903/snap4d.png[/img]
[img]http://img850.imageshack.us/img850/6131/snap5u.png[/img]
[img]http://img825.imageshack.us/img825/6707/snap6a.png[/img]


Note : did my best, hope you like it

Source: ours

Enjoy!

Respects to CaptainHomey, Cyanide, CM8, Rx, THC, ELEKTRI4KA, 
Killerhz, PA, YeFsTe, Box, MrRep and everyone in the struggle...